<?xml version="1.0" standalone="no"?>
<!DOCTYPE svg PUBLIC "-//W3C//DTD SVG 20010904//EN"
 "http://www.w3.org/TR/2001/REC-SVG-20010904/DTD/svg10.dtd">
<svg version="1.0" xmlns="http://www.w3.org/2000/svg"
 width="500.000000pt" height="500.000000pt" viewBox="0 0 500.000000 500.000000"
 preserveAspectRatio="xMidYMid meet">

<g transform="translate(0.000000,500.000000) scale(0.100000,-0.100000)"
fill="#000000" stroke="none">
<path d="M2463 4755 c-99 -43 -169 -125 -203 -237 -31 -105 -106 -251 -155
-303 -56 -59 -71 -92 -89 -205 -8 -52 -20 -115 -26 -140 -14 -54 -8 -135 16
-195 9 -24 14 -50 11 -58 -3 -8 -27 -17 -53 -21 -93 -12 -211 -105 -299 -234
-89 -131 -97 -157 -96 -292 0 -71 -4 -126 -12 -143 -11 -26 -12 -22 -12 45 0
40 -3 109 -5 153 -5 75 -3 85 28 150 18 39 46 91 63 116 16 25 29 52 29 60 1
27 142 130 233 169 53 23 57 27 51 50 -4 14 -10 41 -14 60 -4 23 -11 34 -21
32 -56 -10 -724 -328 -762 -362 -9 -8 7 -340 23 -505 18 -167 58 -453 85 -590
14 -72 25 -135 25 -142 0 -9 -32 -13 -112 -15 l-113 -3 -13 -120 c-7 -66 -28
-259 -47 -430 -19 -170 -40 -362 -46 -424 l-12 -115 69 -63 c38 -35 101 -93
140 -128 l71 -65 154 19 c85 11 218 25 297 31 l144 12 36 -29 c158 -126 544
-332 718 -383 57 -17 89 -6 341 110 146 69 309 166 463 276 33 24 40 25 115
19 144 -11 278 -25 388 -41 59 -8 114 -14 121 -12 8 2 66 52 130 112 64 60
126 116 137 124 17 12 20 22 15 56 -9 73 -55 479 -62 548 l-6 68 -41 19 -42
19 38 1 c45 1 44 -11 17 211 -11 91 -20 171 -20 178 0 9 -30 12 -114 12 l-114
0 15 67 c8 38 18 100 23 138 5 39 21 141 34 227 32 201 57 493 59 678 l2 144
-110 58 c-118 61 -373 188 -379 188 -2 0 -37 15 -78 34 -131 60 -228 100 -231
95 -2 -2 -13 -30 -25 -62 l-22 -58 27 -10 c14 -5 51 -31 82 -58 31 -27 79 -60
107 -74 73 -37 103 -65 163 -152 66 -96 90 -165 96 -274 5 -94 2 -89 -22 39
-18 100 -27 119 -99 216 -54 74 -90 105 -138 124 -15 5 -47 24 -71 40 -24 17
-49 30 -56 30 -7 0 -25 12 -40 26 -15 14 -44 32 -65 39 -25 8 -40 20 -42 32
-2 11 9 59 23 107 19 67 25 111 25 182 0 115 -19 179 -94 314 -29 52 -77 145
-107 205 -43 89 -67 123 -120 176 -75 74 -99 88 -223 123 -98 29 -155 32 -203
11z m252 -471 c33 -14 81 -40 108 -59 l47 -35 0 -88 c0 -94 -6 -109 -64 -164
l-31 -29 44 26 44 27 -7 -29 c-13 -53 -47 -111 -104 -179 -97 -116 -156 -139
-233 -91 -78 47 -199 223 -199 287 0 19 2 21 16 9 9 -8 6 6 -10 36 -26 47 -35
129 -20 180 9 32 111 97 193 121 87 26 125 24 216 -12z m239 -154 l34 -31 -5
-97 c-3 -53 -7 -98 -8 -100 -8 -10 -50 -9 -57 1 -8 13 -11 257 -3 257 2 0 20
-14 39 -30z m-678 -225 c-4 -10 -23 -12 -58 -6 -5 0 -8 22 -8 47 0 35 7 56 33
92 l32 47 3 -84 c2 -46 1 -90 -2 -96z m752 85 c0 -25 -4 -56 -8 -70 -5 -17 -8
5 -8 65 0 59 2 83 8 70 5 -11 8 -40 8 -65z m-185 -265 l28 -34 -88 -88 c-48
-49 -112 -101 -141 -116 l-52 -28 -55 25 c-37 16 -82 52 -135 105 l-81 80 21
21 c11 11 20 29 20 40 0 33 12 23 65 -50 39 -54 60 -74 97 -90 60 -26 82 -25
144 4 38 18 59 36 86 77 19 30 38 62 41 72 9 24 18 21 50 -18z m864 -757 c-3
-7 -5 -2 -5 12 0 14 2 19 5 13 2 -7 2 -19 0 -25z m-2305 -1265 c2 -189 6 -233
20 -258 22 -40 66 -81 101 -94 36 -14 108 -14 144 0 30 11 88 62 106 94 8 13
14 101 17 250 l5 230 97 3 97 3 3 -223 c3 -251 9 -273 82 -332 35 -29 44 -31
114 -31 70 0 80 3 115 30 39 32 77 96 77 133 0 21 4 22 106 22 l106 0 -7 -42
c-13 -94 -47 -160 -117 -231 -74 -75 -122 -101 -218 -116 -115 -19 -240 16
-324 90 l-36 31 -42 -36 c-56 -48 -110 -73 -188 -85 -76 -13 -170 0 -240 32
-62 29 -150 120 -186 192 l-29 60 -3 238 c-2 131 -1 244 2 252 4 12 26 15 100
15 l94 0 4 -227z m1183 122 l0 -100 -100 0 -100 0 -3 89 c-2 49 0 96 2 103 4
11 28 13 103 11 l98 -3 0 -100z m575 78 c48 -16 88 -41 132 -81 l27 -25 42 36
c86 74 201 105 319 86 84 -13 138 -39 205 -101 65 -59 114 -153 122 -234 l6
-54 -99 0 -99 0 -18 56 c-26 82 -91 133 -172 134 -58 0 -104 -16 -138 -47 -59
-57 -62 -69 -67 -313 l-5 -225 -97 -3 -96 -3 -4 228 c-3 188 -6 233 -20 258
-21 39 -66 81 -101 94 -36 14 -108 14 -144 0 -35 -13 -91 -65 -106 -99 -7 -15
-14 -115 -17 -250 l-5 -225 -97 -3 -98 -3 0 234 c0 258 8 306 61 383 37 54
109 117 162 143 84 41 209 46 307 14z m850 -668 l0 -106 -97 3 -98 3 -3 89
c-2 49 -1 95 2 103 4 9 31 13 101 13 l95 0 0 -105z"/>
<path d="M2366 4193 c-3 -4 17 -15 46 -24 37 -12 46 -17 28 -18 -14 -1 -32 -6
-40 -11 -23 -16 15 -40 63 -40 21 0 46 -4 56 -10 16 -8 20 -5 25 22 3 17 5 32
4 33 -2 0 -33 13 -71 28 -68 27 -98 33 -111 20z m124 -73 c11 -7 5 -10 -22
-10 -21 0 -38 5 -38 10 0 13 40 13 60 0z"/>
<path d="M2740 4193 c-8 -2 -24 -9 -35 -14 -11 -5 -32 -13 -47 -19 -23 -8 -28
-15 -27 -42 1 -18 5 -44 9 -58 8 -23 8 -24 9 -3 1 17 9 23 39 29 81 14 97 20
97 39 0 12 -9 21 -25 25 -22 5 -20 8 22 20 30 9 43 17 35 22 -13 8 -53 9 -77
1z m10 -73 c0 -5 -16 -10 -36 -10 -21 0 -33 4 -29 10 3 6 19 10 36 10 16 0 29
-4 29 -10z"/>
<path d="M2624 3905 c-18 -14 -18 -14 9 -15 17 0 27 5 27 15 0 19 -11 19 -36
0z"/>
<path d="M2538 3903 c7 -3 16 -2 19 1 4 3 -2 6 -13 5 -11 0 -14 -3 -6 -6z"/>
<path d="M2609 3829 c-6 -3 -20 -4 -30 -2 -22 6 -74 -5 -65 -14 23 -24 186
-18 171 6 -7 12 -62 19 -76 10z"/>
</g>
</svg>
